<?xml version="1.0" encoding="UTF-8"?><svg xmlns="http://www.w3.org/2000/svg" viewBox="0 0 264.96 466.14"><defs><style>.d{fill:#020202;}.e{fill:#e0e0e0;}.f{fill:#191919;}.g,.h{fill:#6d6d6d;}.i{fill:#786684;}.h{stroke:#191919;stroke-miterlimit:10;stroke-width:3px;}</style></defs><g id="a"/><g id="b"><g id="c"><g><path class="d" d="M130.18,0C68.19,0,17.94,58.4,17.94,154.08s50.25,110.41,112.24,110.41,112.24-14.73,112.24-110.41S192.17,0,130.18,0Z"/><path class="d" d="M132.51,111.2c-87.08-.03-118.04,98.68-128.59,169.21-7.44,49.7-7.62,111.25,29.99,151.1,25.57,27.1,62.77,34.62,98.58,34.62,35.81,0,73.01-7.52,98.58-34.62,37.6-39.85,37.42-101.42,29.99-151.1-10.55-70.53-41.47-169.19-128.54-169.21Z"/><g><path class="e" d="M200.14,137.73c-3.17,37.44-21.32,96.81-69.96,96.81s-66.79-59.37-69.96-96.81c-3.56-42.08,17.47-99.58,69.96-99.58,52.48,0,73.51,57.49,69.96,99.58Z"/><ellipse class="f" cx="90.09" cy="121.15" rx="15.45" ry="8.55"/><ellipse class="f" cx="172.33" cy="121.15" rx="15.45" ry="8.55"/><ellipse class="f" cx="132.57" cy="200.85" rx="23" ry="6.83"/><ellipse class="g" cx="132.53" cy="214.75" rx="12.01" ry="3.11"/><path class="h" d="M101.52,135.34c.39,1.82-4.53,6.25-11.43,6.25-6.9,0-11.81-4.42-11.43-6.25,.39-1.82,5.33-.7,11.43-.7,6.1,0,11.04-1.13,11.43,.7Z"/><path class="h" d="M184.79,135.34c.39,1.82-4.53,6.25-11.43,6.25s-11.81-4.42-11.43-6.25c.39-1.82,5.33-.7,11.43-.7,6.1,0,11.04-1.13,11.43,.7Z"/><path class="i" d="M100.52,92.57c-.62,8.26-5.26,9.71-9.88,9.1s-7.84-3.09-6.85-11.32c1.12-9.38,9.47-21.6,15.19-20.54,4.77,.94,2.08,15.74,1.55,22.76Z"/><path class="i" d="M160.12,91.96c.62,8.26,5.26,9.71,9.88,9.1s7.84-3.09,6.85-11.32c-1.12-9.38-9.47-21.6-15.19-20.54-4.77,.94-2.08,15.74-1.55,22.76Z"/><path class="i" d="M100.35,163.86c.83,8.62,4.75,23.97,2.66,28.64-.47,1.06-1.72,1.5-2.78,1.01-6.03-2.79-16.72-23.66-17.6-32.79s2.83-11.58,7.8-12.32c1.3-.19,2.65-.02,3.84,.54,3.73,1.77,5.29,6.72,6.08,14.91Z"/><path class="i" d="M163.95,163.86c-.83,8.62-4.75,23.97-2.66,28.64,.47,1.06,1.72,1.5,2.78,1.01,6.03-2.79,16.72-23.66,17.6-32.79s-2.83-11.58-7.8-12.32c-1.3-.19-2.65-.02-3.84,.54-3.73,1.77-5.29,6.72-6.08,14.91Z"/></g><path class="d" d="M18.59,162.66c1.93,0,1.93-3,0-3s-1.93,3,0,3h0Z"/></g></g></g></svg>