<?xml version="1.0" encoding="UTF-8"?><svg xmlns="http://www.w3.org/2000/svg" viewBox="0 0 16.01 35.89"><defs><style>.d{fill:#fff;}</style></defs><g id="a"/><g id="b"><g id="c"><g><path class="d" d="M15.1,35.79H6.13c-.47,0-.75-.66-.47-1.14l.33-.56c.11-.19,.28-.3,.47-.3H15.43c.47,0,.75,.66,.47,1.14l-.33,.56c-.11,.19-.28,.3-.47,.3Z"/><g><path class="d" d="M10.52-1.7h0c1.5,0,2.72,1.22,2.72,2.72v1.15c0,1.5-1.22,2.72-2.72,2.72h0V-1.7h0Z" transform="translate(6.86 12.48) rotate(-72.86)"/><path class="d" d="M8.13,2.59L.23,28.21l6.3,1.94L14.42,4.53l-6.3-1.94ZM3.35,25.95c-.05,.17-.19,.28-.32,.24s-.18-.21-.13-.38L8.96,6.16c.05-.17,.19-.28,.32-.24s.18,.21,.13,.38L3.35,25.95Zm2.32,.71c-.05,.17-.19,.28-.32,.24s-.18-.21-.13-.38L11.28,6.87c.05-.17,.19-.28,.32-.24s.18,.21,.13,.38L5.66,26.66Z"/><path class="d" d="M.85,35.32c.08,.56,.78,.78,1.16,.36l.62-.69-1.9-.61,.13,.94Z"/><polygon class="d" points="6.3 30.89 0 28.95 .68 34.05 2.84 34.74 6.3 30.89"/></g></g></g></g></svg>