<?xml version="1.0" encoding="UTF-8"?><svg xmlns="http://www.w3.org/2000/svg" viewBox="0 0 215 215"><defs><style>.d{fill:#fff;}</style></defs><g id="a"/><g id="b"><g id="c"><path class="d" d="M166.87,0H48.13C21.55,0,0,21.55,0,48.13V197.07c0,9.9,8.03,17.93,17.93,17.93H197.07c9.9,0,17.93-8.03,17.93-17.93V48.13c0-26.58-21.55-48.13-48.13-48.13ZM80,19h52.67c3.31,0,6,2.69,6,6s-2.69,6-6,6h-52.67c-3.31,0-6-2.69-6-6s2.69-6,6-6ZM30,65.72c0-8.68,7.04-15.72,15.72-15.72h127.57c8.68,0,15.72,7.04,15.72,15.72v64.28H30V65.72Zm30.35,108.5c0,5.23-4.24,9.46-9.46,9.46h-11.42c-5.23,0-9.46-4.24-9.46-9.46v-11.42c0-5.23,4.24-9.46,9.46-9.46h11.42c5.23,0,9.46,4.24,9.46,9.46v11.42Zm130.65,0c0,5.23-4.24,9.46-9.46,9.46h-11.42c-5.23,0-9.46-4.24-9.46-9.46v-11.42c0-5.23,4.24-9.46,9.46-9.46h11.42c5.23,0,9.46,4.24,9.46,9.46v11.42Z"/></g></g></svg>