<?xml version="1.0" encoding="UTF-8"?><svg xmlns="http://www.w3.org/2000/svg" viewBox="0 0 193.43 144.61"><defs><style>.d{fill:#fff;}.e{fill:gray;}</style></defs><g id="a"/><g id="b"><g id="c"><g><path class="d" d="M188.6,31.61c-1.93-2.76-4.64-4.87-7.48-6.67-11.68-7.38-29.75-5.13-34.57-6.1-3.85-.77-23.62-13.98-27.48-14.95-13.66-3.42-19.98-2.98-33.75,0-3.27,.71-10.12,3.37-17.29,5.93-3.35,1.2-8.83,2.83-12.12,4.19-6.87,2.84-12.39,3.13-19.67,4.77-8.57,1.94-17.3,4.37-24.28,9.7C4.98,33.83,.06,42.71,1.74,51.33c1.38,7.12,6.93,12.8,13.16,16.5,14.02,8.33,27.02,6.04,42.46,11.28,6.13,2.08,16.31,7.33,22.62,8.78,23.05,5.31,45.57-9.5,68.95-13.06,8.03-1.22,16.39-1.15,23.93-4.18,9.25-3.73,16.41-12.25,18.49-22,1.23-5.79,.65-12.19-2.74-17.04Z"/><path class="e" d="M189.89,30.85c-8.73-12.17-24.85-12.95-38.44-13.2-1.08-.02-2.15-.04-3.23-.11-.82-.06-.99-.03-1.74-.27-1.4-.44-3.18-1.48-4.71-2.33-4.81-2.68-9.48-5.59-14.23-8.36-1.9-1.11-3.81-2.23-5.8-3.19-2.46-1.19-5.15-1.66-7.82-2.19C110.25,.48,106.51,0,102.76,0s-7.39,.46-11.03,1.1-7.32,1.36-10.86,2.55c-4.21,1.4-8.35,2.99-12.53,4.49-3.57,1.28-7.22,2.36-10.79,3.66-3.95,1.44-7.77,2.83-11.91,3.65-15.6,3.11-34.87,6.07-42.98,21.78-3.61,7-3.67,15.09,.63,21.8,4.35,6.78,11.63,11.27,19.06,13.95,7.62,2.75,15.72,3.37,23.64,4.81,4.09,.75,8.17,1.72,12.08,3.16,3.37,1.24,6.65,2.75,9.96,4.16s6.66,2.86,10.13,3.86c3.78,1.09,7.81,1.53,11.74,1.56,8.46,.06,16.8-1.94,24.84-4.39s16.4-5.56,24.78-7.77c4.21-1.11,8.46-1.97,12.79-2.48s8.98-.84,13.42-1.67c7.84-1.46,14.96-5.08,20.14-11.25,4.87-5.8,7.91-13.33,7.56-20.97-.18-3.96-1.27-7.85-3.51-11.14-1.08-1.59-3.68-.09-2.59,1.51,4.36,6.41,3.79,15,.63,21.81-2.98,6.43-8.19,11.72-14.66,14.67-7.84,3.58-16.82,3.29-25.17,4.61s-16.2,3.92-24.1,6.54c-14.66,4.85-31.03,10.7-46.44,5.66-6.6-2.16-12.74-5.48-19.27-7.79-7.59-2.69-15.59-3.52-23.48-4.86s-15.41-3.57-21.89-8.24c-6-4.32-10.62-10.89-9.94-18.55s5.97-14.12,12.17-18.1c6.98-4.47,15.28-6.59,23.31-8.25,3.99-.82,8.04-1.38,11.98-2.42,3.68-.97,7.16-2.53,10.77-3.74s7.44-2.48,11.13-3.83,7.42-2.79,11.21-3.94c3.48-1.06,7.15-1.67,10.74-2.23s6.91-.8,10.38-.66c3.79,.16,7.53,.81,11.23,1.65,2.39,.54,3.56,.87,5.54,1.91,4.46,2.35,8.74,5.04,13.08,7.61,2.17,1.28,4.34,2.56,6.55,3.77,1.49,.81,3.04,1.71,4.67,2.2s3.37,.42,4.99,.46c2.74,.06,5.49,.07,8.23,.21,6.64,.33,13.61,1.21,19.57,4.34,3.32,1.74,6.57,4.11,8.77,7.18,1.12,1.55,3.72,.06,2.59-1.51Z"/></g><g><path class="d" d="M158.31,101.03c-1.05-2.09-1.94-2.34-4.67-3.25h-2.72c-2.68-.15-3.47,1.34-5.03,3.53-1.55,2.19-2.18,4.93-2.27,7.61-.06,1.64,.15,3.45,1.36,4.56,1.13,1.03,2.79,1.15,4.32,1.21,2.04,.09,4.22,.14,5.98-.91,3.53-2.1,3.73-7.6,3.52-10.92-.04-.64-.21-1.26-.5-1.83Z"/><path class="e" d="M159.61,100.27c-.86-1.67-2.06-2.65-3.79-3.32-.73-.28-1.54-.64-2.32-.67-.61-.02-1.23,0-1.84,0-1.65,0-3.16,.07-4.51,1.15-.74,.59-1.29,1.36-1.84,2.12-.68,.96-1.34,1.91-1.82,3-1.65,3.78-2.81,10.93,1.97,12.97,1.1,.47,2.28,.6,3.46,.66s2.33,.11,3.48-.01c2.38-.25,4.42-1.2,5.85-3.15,1.28-1.75,1.77-3.95,2-6.06s.31-4.65-.64-6.69c-.34-.73-1.4-.92-2.05-.54-.75,.44-.88,1.32-.54,2.05,.57,1.21,.38,2.91,.31,4.21-.08,1.37-.3,2.8-.84,4.07s-1.48,2.39-2.86,2.83c-1.73,.55-3.83,.43-5.61,.21-1.67-.2-2.63-.99-2.85-2.69-.24-1.85,.08-3.89,.66-5.64,.53-1.63,1.55-3.22,2.68-4.51,.78-.89,1.47-1,2.65-.99,.56,0,1.12,0,1.68,0,.22,0,.48-.04,.7,0,.1,.02,.13,.08-.03,.03,.24,.07,.47,.16,.71,.24,1.48,.51,2.1,.87,2.81,2.24,.88,1.72,3.47,.2,2.59-1.51Z"/></g><g><path class="d" d="M134.89,132.69c-.94-1.58-2.5-2.86-4.32-3.09h0c-2.31,.2-4.35,1.67-5.15,3.85-.99,2.73-1.27,5.83,.27,7.75s4.08,2.39,6.3,1.53c4.06-1.57,4.91-6.66,2.9-10.04Z"/><path class="e" d="M136.19,131.93c-.93-1.52-2.24-2.75-3.9-3.42s-3.16-.34-4.68,.41c-3.13,1.55-4.42,5.2-4.49,8.5-.03,1.59,.32,3.24,1.29,4.53,1.02,1.36,2.55,2.29,4.23,2.56,3.08,.49,6.22-.96,7.74-3.71s1.37-6.2-.18-8.88c-.97-1.67-3.56-.16-2.59,1.51,.9,1.55,1.1,3.34,.53,5.07-.25,.76-.68,1.44-1.36,2.05-.59,.52-1.55,.96-2.43,1.04-2.07,.19-3.91-1.05-4.18-3.19-.15-1.16,.06-2.4,.39-3.54s.72-2.01,1.6-2.76c.37-.31,.91-.62,1.38-.78,.29-.1,.6-.15,.89-.23-.11,.03,.17-.02,.16-.02-.44,.06,.01,.01,.18,.06,1.23,.32,2.19,1.23,2.84,2.29,1.01,1.64,3.6,.14,2.59-1.51Z"/></g></g></g></svg>